PathFileType	4	(X/Y/Z)	Patient4_TMGait_0pt5_01_left_43.trc.trc
DataRate	CameraRate	NumFrames	NumMarkers	Units	OrigDataRate	OrigDataStartFrame	OrigNumFrames
76.923076923077	76.923076923077	5	33	mm	76.923076923077	106	       141
Frame#	Time	L.ASIS			Sacral			L.Shoulder			Chest			R.Shoulder			Neck			R.ASIS			R.Thigh.Superior			R.Thigh.Lateral			R.Thigh.Inferior			R.Patella			L.Thigh.Superior			L.Thigh.Lateral			L.Thigh.Inferior			L.Patella			L.Shank.Superior			L.Shank.Lateral			L.Shank.Inferior			R.Shank.Superior			R.Shank.Lateral			R.Shank.Inferior			R.Heel			R.Midfoot.Superior			R.Midfoot.Lateral			R.Toe			L.Heel			L.Midfoot.Lateral			L.Midfoot.Superior			L.Toe			L.Elbow			L.Wrist			R.Elbow			R.Wrist			
		X1	Y1	Z1	X2	Y2	Z2	X3	Y3	Z3	X4	Y4	Z4	X5	Y5	Z5	X6	Y6	Z6	X7	Y7	Z7	X8	Y8	Z8	X9	Y9	Z9	X10	Y10	Z10	X11	Y11	Z11	X12	Y12	Z12	X13	Y13	Z13	X14	Y14	Z14	X15	Y15	Z15	X16	Y16	Z16	X17	Y17	Z17	X18	Y18	Z18	X19	Y19	Z19	X20	Y20	Z20	X21	Y21	Z21	X22	Y22	Z22	X23	Y23	Z23	X24	Y24	Z24	X25	Y25	Z25	X26	Y26	Z26	X27	Y27	Z27	X28	Y28	Z28	X29	Y29	Z29	X30	Y30	Z30	X31	Y31	Z31	X32	Y32	Z32	X33	Y33	Z33	

106	58.615000000000	870.245160700343	955.716532440574	320.512971565620	669.351993551993	1006.092021944611	489.280437409793	837.248738410080	1422.568447128756	280.802031987740	951.561710333254	1357.613738493305	436.392258777808	883.450987765599	1439.812336038090	613.902056833536	850.279118497197	1490.666199800144	428.572682160406	902.651022424306	939.060574429230	592.388253861634	944.617982445922	738.387878561564	560.152186640655	864.734763515286	629.020999941399	618.254663770098	939.347754059072	577.257040971978	534.959213840235	939.500083682312	484.550307630707	539.052106952785	957.418961028424	776.042747447893	351.944319123619	914.810177398354	650.949065799753	276.356908876066	1019.087213703931	589.955240915018	338.260135886213	1033.523676834523	499.462322618514	331.599489588049	968.317225857099	431.635854919492	325.117224583817	827.044032270663	385.061304085954	281.040016042213	821.442022102649	255.343770431186	334.819332300903	902.177438297847	397.742519331878	545.724390428357	823.787421290986	299.672737889011	606.576726659361	856.021226333592	202.610477654650	542.048212281631	708.237986593173	44.081219868787	513.374581162648	880.192762411243	96.704752866495	550.117973033489	790.632226107923	37.081638177694	588.610880931671	999.179314395214	40.364673104806	580.831834531993	635.205670593945	191.634676832727	379.401404881315	687.862939199886	143.529248152559	297.583552776335	793.171314619529	148.364717846861	314.163611384967	865.282673632052	33.177251210344	285.084221842739	799.638328022368	1060.388918152052	191.716965649653	889.910495473213	815.180394183083	170.618385177226	910.841006137432	1101.194491027632	750.768654636963	1127.637134551666	969.420741956628	702.046621933868	
107	58.628000000000	868.048139105050	956.540493566158	320.728752281286	668.461777527243	1007.016155145785	491.054303304865	836.114494711621	1422.368926749610	280.728821451167	951.493189684021	1357.465148836877	435.496426609337	885.255961291877	1440.559312688927	613.347871396883	850.618096869516	1490.828499332826	428.119304423755	901.922387229285	938.956934671630	592.405684683663	942.002473023737	737.782971050859	559.413980458208	861.631667045114	629.071272494475	618.360235999897	934.976612386420	576.720520924529	534.540832677792	934.344990952970	484.097086690795	538.743674016748	956.682453528999	778.882936855890	352.712950232603	915.754992478500	653.334317341676	276.977342879822	1020.348625514247	593.513504768928	339.291785067854	1036.573402409526	504.065331632249	332.318950606555	974.628785520588	434.691447301246	325.273189822091	836.329255769325	380.583851170631	281.133300632481	838.494007999335	250.481067642596	334.213498044763	896.733215245615	397.355117183731	545.634437950065	818.143673317000	299.574081263763	606.638307005976	849.935895864614	202.419019274371	542.024927643485	701.667597680322	44.041554389846	513.456400644709	873.640762676118	96.677194823878	550.163861180679	784.074069995362	37.073029284094	588.696839089285	992.615566043019	40.343919290690	580.902415957872	656.735337969177	174.302547104358	379.072842544672	712.131398810099	131.011895530749	296.482482817947	816.841815261490	143.077152070983	312.712617821985	896.666759404292	34.059661277436	282.024955344773	793.860736109846	1060.242649466191	193.594857341293	874.287482571723	811.725298038985	173.895612677520	920.544520296858	1103.312576908917	750.367124872811	1143.620175823527	986.325654741810	695.774298167206	
108	58.641000000000	865.890403257788	957.308784546189	320.766131581167	667.617282321683	1007.982081982895	492.706479481593	835.032132125355	1422.200429758962	280.560178213363	951.494449975574	1357.275686833295	434.450399380165	887.180913602670	1441.224768512821	612.662519448505	850.997392268834	1490.963852094517	427.593723415050	901.198430714935	938.798460800730	592.248192345080	939.336704257921	737.146660606927	558.555777141451	858.462129279147	629.152276169617	618.405752282171	930.474197805441	576.197197400701	534.061961496556	929.038331351206	483.676795214639	538.401826676028	955.571338532255	781.294595170708	353.301830711546	915.907466887432	655.305454697658	277.500133354899	1020.608211068681	596.439798225527	340.346575430328	1038.550699035742	508.298845216774	333.103993481137	980.200566333074	437.530993861254	325.438162678528	845.720491834177	375.430799861671	280.918574070415	856.116625233517	245.385670414692	333.451999049413	891.168944665161	396.977388878756	545.518404101128	812.430203104600	299.465152044202	606.694958475540	843.797786640217	202.224725294959	542.003523805015	695.092477369569	43.988902884535	513.536476115398	867.073725943095	96.637822102008	550.191662804719	777.511020851239	37.053320200432	588.783763200353	986.047376688403	40.326510528678	580.961686299291	679.893573736275	156.308249114788	378.203927808366	738.050463739470	118.200551627791	295.052765992481	841.593260059935	137.773607888104	311.218155867575	929.177627423154	35.677048663689	279.272036919098	787.538103218920	1060.283014923362	195.348863573905	858.935043514949	809.177439562240	177.080540415286	930.194966146919	1105.493293802664	749.565357670689	1158.323937206626	1003.562975558050	688.948273769382	
109	58.654000000000	863.784195319802	958.006815346395	320.633234115390	666.806761502881	1008.977427682948	494.214449368820	834.012891222874	1422.048165212106	280.290750934853	951.565332681568	1357.030768809079	433.258692413427	889.213461828471	1441.791136722542	611.842777139537	851.428266665030	1491.059900164707	426.986555937339	900.478447605517	938.580996163119	591.921617138384	936.634868466992	736.473323134020	557.618486487375	855.234216346160	629.246642617059	618.395869429596	925.874899949130	575.675182648018	533.540861717990	923.608704299227	483.278389301764	538.027221445517	954.098031896631	783.245353626652	353.726529433601	915.313920311640	656.838937585551	277.905432055280	1019.896422382838	598.705031139592	341.433030312572	1039.506684572731	512.130119786603	333.983486515955	985.007578408891	440.165516630911	325.669623291391	855.236324879351	369.852792727538	280.371594714274	874.050051600413	240.396584471839	332.612588280367	885.515275001108	396.606497504422	545.375973682642	806.666131449791	299.346535282030	606.745012571427	837.616536294888	202.026585614461	541.982276934480	688.512110302781	43.928221551810	513.617944969470	860.491253500011	96.587039608805	550.198907119585	770.942836313411	37.024019595025	588.871906214121	979.474881306655	40.314966417828	581.010056424424	704.367617406275	138.365049021563	376.755951110035	765.289542739437	105.691582235794	293.352706316643	867.023196280817	132.859892779306	309.817017264362	962.174788614641	38.298609019541	277.148714351696	780.751838224747	1060.501147617230	197.023939504146	843.923245183164	807.399849996391	180.143628465327	939.776286077600	1107.699403508739	748.363593999023	1171.713549107617	1020.937045321654	681.629378242589	
110	58.667000000000	861.745315027184	958.622949890568	320.334098201663	666.020686159303	1009.989242399787	495.553944091260	833.068182257906	1421.898550783045	279.915381395729	951.704362392263	1356.718807147293	431.927983122503	891.339117915278	1442.246627339980	610.884868211837	851.921579399178	1491.107098353586	426.287663546742	899.763008111198	938.304694762855	591.431343530766	933.907150639464	735.757312734645	556.638471316607	851.954871152266	629.335023019898	618.333176934900	921.210940501825	575.140516155369	532.990672878119	918.084803440168	482.890077865645	537.619156319706	952.281631519854	784.721293648048	354.001514061869	914.047655891692	657.936518438277	278.164925205072	1018.277487840286	600.313452133879	342.538781660477	1039.521477943623	515.547897580141	334.963927649369	989.043705321520	442.607455414231	326.007459516019	864.851718667918	364.100222453257	279.489107221099	891.991893138512	235.809412059772	331.780230909138	879.803315852256	396.240798065779	545.206442587285	800.868147052494	299.220302487291	606.784385652374	831.401840924626	201.824884639960	541.957843538077	681.926146483716	43.863532723179	513.702620834578	853.893558997021	96.526389248984	550.184447877769	764.369463647782	36.987612518319	588.960973705614	972.898038394680	40.312896730335	581.048092685127	729.727169604453	121.118244176569	374.744212363635	793.415931287273	93.995733296056	291.476167936917	892.677589551442	128.671691889380	308.646584509266	995.011339261006	42.105715562310	275.952985310755	773.610523592832	1060.886334077552	198.659571033861	829.310201187046	806.258793187617	183.063538796536	949.268820299164	1109.900213545264	746.764026564657	1183.777395951689	1038.250018055705	673.882659267670	
